<!--?xml version="1.0" encoding="utf-8"?-->
<!-- Generator: Adobe Illustrator 18.1.1, SVG Export Plug-In . SVG Version: 6.00 Build 0)  -->

<svg version="1.1" id="_x32_" xmlns="http://www.w3.org/2000/svg" xmlns:xlink="http://www.w3.org/1999/xlink" x="0px"
     y="0px" viewBox="0 0 800 512" style="width: 800px; height: 512px; opacity: 1;" xml:space="preserve">

    <style type="text/css">


        .treble_clef {
            fill: #4B4B4B;
        }

        .line {
            stroke: #4B4B4B;
        }
    </style>
    <g>
        <path class="treble_clef" d="M277.466,220.094c-7.37-0.72-14.253-0.769-20.695-0.295c-2.576-10.568-5.28-21.382-8.069-32.507
		c-2.949-11.779-5.534-22.74-7.783-33.006c33.218-33.292,54.707-62.83,59.104-88.646c5.362-31.428-6.904-66.96-41.129-65.603
		c-34.221,1.374-65.66,35.525-54.756,105.242c2.36,15.084,5.374,29.808,8.818,44.433c-7.975,6.11-16.748,12.286-26.352,18.454
		c-102.404,65.587-81.836,166.732-54.482,200.899c21.591,27.002,79.141,50.56,131.002,33.685
		c-3.084,36.515-14.209,64.277-30.123,75.672c-23.644,16.924-37.063,4.098-36.621-6.838c0.434-10.945-0.176-30.078-13.677-34.184
		c-13.518-4.09-28.434-6.822-41.321,8.222c-12.912,15.018-7.064,39.631,4.851,49.185c26.781,21.505,73.979,28.728,116.735-13.644
		c19.423-19.255,26.278-49.39,24.675-89.914c5.108-3.231,10.094-6.969,14.9-11.247C360.647,328.069,346.909,226.915,277.466,220.094
		z M253.441,34.213c34.327,1.637,36.409,44.876-17.431,95.902C223.192,60.749,230.333,33.101,253.441,34.213z M161.855,343.095
		c-32.212-49.202-14.106-105.185,34.585-147.606c8-6.978,15.636-13.808,22.879-20.499c4.344,16.277,9.059,32.67,13.84,49.538
		c-37.071,12.908-52.09,47.803-49.002,73.464c4.098,34.184,28.494,39.664,42.163,39.664c13.673,0,19.718-15.051,2.18-20.523
		c-15.3-4.769-18.675-47.894,12.568-64.335c5.636,20.662,11.162,42.355,16.078,65.701c3.39,16.139,5.44,31.812,6.315,46.675
		C228.219,381.515,185.921,379.879,161.855,343.095z M284.133,352.919c-4.156-30.879-11.493-66.299-20.867-106.077
		c44.335-1.816,67.922,62.233,32.544,96.253C292.161,346.604,288.239,349.892,284.133,352.919z"/>

        <path d="M61.777,88.63 L61.777,426.99" fill="none" class="line"
              stroke-width="30" stroke-opacity="1.00" stroke-linejoin="round"/>


        <path d="M61.777,175.72 L712,175.72" fill="none" class="line"
              stroke-width="10" stroke-opacity="1.00" stroke-linejoin="round"/>


        <path d="M61.777,257.81 L712,257.81" fill="none" class="line"
              stroke-width="10" stroke-opacity="1.00" stroke-linejoin="round"/>


        <path d="M61.777,339.9 L712,339.9" fill="none" class="line"
              stroke-width="10" stroke-opacity="1.00" stroke-linejoin="round"/>


        <path d="M61.777,93.63 L712,93.63" fill="none" class="line"
              stroke-width="10" stroke-opacity="1.00" stroke-linejoin="round"/>

        <path d="M61.777,421.99 L712,421.99" fill="none" class="line"
              stroke-width="10" stroke-opacity="1.00" stroke-linejoin="round"/>
    </g>


    <g>
        <style>
            .key {
                fill: #4B4B4B;
                font-size: 200px;
                font-weight: 900;
                font-family: monospace;
            }
        </style>

                    <text class="key" x="350" y="160">♯</text>
                            <text class="key" x="390" y="280">♯</text>
                            <text class="key" x="430" y="140">♯</text>
                            <text class="key" x="470" y="240">♯</text>
                            <text class="key" x="510" y="380">♯</text>
                

                                        

    </g>
</svg>
